<svg width="24" height="19" xmlns="http://www.w3.org/2000/svg"><path d="M15.96 9.781l-3.21 3.211V5.75a.72.72 0 0 0-.223-.527A.72.72 0 0 0 12 5a.72.72 0 0 0-.527.223.72.72 0 0 0-.223.527v7.219L8.062 9.78a.797.797 0 0 0-.55-.21.72.72 0 0 0-.528.21.782.782 0 0 0-.21.54c0 .202.07.382.21.538l4.454 4.43a.645.645 0 0 0 .269.164.995.995 0 0 0 .61 0 .645.645 0 0 0 .269-.164l4.453-4.43a.782.782 0 0 0 .211-.539.782.782 0 0 0-.21-.539.715.715 0 0 0-.528-.21.799.799 0 0 0-.551.21zm1.337-5.508a6.153 6.153 0 0 0-1.031-1.535 6.982 6.982 0 0 0-1.407-1.183A6.913 6.913 0 0 0 13.172.78 6.499 6.499 0 0 0 11.25.5a6.648 6.648 0 0 0-4.605 1.816A6.997 6.997 0 0 0 5.18 4.31a6.513 6.513 0 0 0-.657 2.449 6.508 6.508 0 0 0-1.816.832 6.16 6.16 0 0 0-1.43 1.3 5.97 5.97 0 0 0-.937 1.676A5.567 5.567 0 0 0 0 12.5c0 .797.156 1.547.469 2.25a6.136 6.136 0 0 0 1.277 1.863c.54.54 1.172.973 1.899 1.301A6.554 6.554 0 0 0 6 18.477l12.75.023a8.582 8.582 0 0 0 1.91-1.184 10.06 10.06 0 0 0 1.688-1.722c.492-.64.89-1.324 1.195-2.051A5.57 5.57 0 0 0 24 11.375a6.987 6.987 0 0 0-1.945-4.887 7.546 7.546 0 0 0-2.133-1.547 6.652 6.652 0 0 0-2.625-.668zM18.75 17H6l-.703-.14c-.469-.094-.988-.294-1.559-.598-.57-.305-1.086-.754-1.547-1.348-.46-.594-.691-1.398-.691-2.414 0-.563.121-1.11.363-1.64a4.927 4.927 0 0 1 2.39-2.426A4.529 4.529 0 0 1 6 8c0-.781.121-1.531.363-2.25a6.034 6.034 0 0 1 1.043-1.91c.453-.555 1.004-1 1.653-1.336C9.707 2.168 10.437 2 11.25 2c1.281 0 2.344.352 3.188 1.055.843.703 1.414 1.601 1.71 2.695.938-.031 1.79.11 2.555.422a6.585 6.585 0 0 1 1.98 1.23 5.733 5.733 0 0 1 1.301 1.723c.313.64.485 1.266.516 1.875.031.531-.055 1.09-.258 1.676a7.956 7.956 0 0 1-.832 1.699 9.063 9.063 0 0 1-1.219 1.512c-.46.46-.941.832-1.441 1.113z" fill="#0081E4" fill-rule="evenodd"/></svg>