<svg width="25" height="25" xmlns="http://www.w3.org/2000/svg"><path d="M21.182 18.894c0 .106.052.16.157.16.105 0 .157-.054.157-.16 0-.106-.052-.16-.157-.16-.105 0-.157.054-.157.16zm-3.347 3.53c0 .195.104.293.314.293.209 0 .313-.106.313-.319 0-.177-.104-.265-.313-.265-.21 0-.314.097-.314.292zm-4.55 1.806c0 .301.156.451.47.451.314 0 .47-.141.47-.424 0-.319-.156-.478-.47-.478-.314 0-.47.15-.47.451zm-4.864-.239a.62.62 0 0 0 .183.451.572.572 0 0 0 .418.186.572.572 0 0 0 .418-.186.62.62 0 0 0 .183-.45.62.62 0 0 0-.183-.452.572.572 0 0 0-.418-.186.572.572 0 0 0-.418.186.62.62 0 0 0-.183.451zm-4.342-2.23c0 .212.079.39.236.531.157.142.34.212.549.212a.7.7 0 0 0 .523-.212.726.726 0 0 0 .21-.53.82.82 0 0 0-.21-.558.666.666 0 0 0-.523-.24c-.21 0-.392.08-.55.24a.77.77 0 0 0-.235.557zm-2.98-3.85c0 .266.086.487.26.664a.88.88 0 0 0 .655.266.88.88 0 0 0 .653-.266c.175-.177.262-.407.262-.69a.876.876 0 0 0-.262-.637.88.88 0 0 0-.653-.266.88.88 0 0 0-.654.266.908.908 0 0 0-.262.664zM0 13.187c0 .3.096.557.288.77a.943.943 0 0 0 .732.318c.296 0 .549-.106.758-.318.21-.213.314-.47.314-.77 0-.301-.105-.558-.314-.77a1.025 1.025 0 0 0-.758-.319.943.943 0 0 0-.732.319 1.108 1.108 0 0 0-.288.77zm.89-4.673c0 .337.121.629.365.876.244.248.532.372.863.372.331 0 .62-.124.863-.372.244-.247.366-.54.366-.876 0-.336-.122-.628-.366-.876a1.172 1.172 0 0 0-.863-.372c-.331 0-.619.124-.863.372s-.366.54-.366.876zm2.771-3.77c0 .372.14.7.418.983.28.283.602.424.968.424s.689-.141.968-.424a1.36 1.36 0 0 0 .418-.983c0-.371-.14-.69-.418-.955a1.361 1.361 0 0 0-.968-.399c-.366 0-.689.133-.968.399a1.273 1.273 0 0 0-.418.955zm4.08-2.15c0 .425.148.788.444 1.088.297.301.654.452 1.072.452.419 0 .776-.15 1.072-.452.297-.3.445-.663.445-1.088 0-.425-.148-.788-.445-1.089a1.45 1.45 0 0 0-1.072-.45c-.418 0-.775.15-1.072.45a1.497 1.497 0 0 0-.444 1.089zm4.602-.133c0 .478.166.876.497 1.195a1.64 1.64 0 0 0 1.177.478c.453 0 .845-.16 1.177-.478.33-.319.496-.726.496-1.221 0-.46-.165-.85-.496-1.169a1.64 1.64 0 0 0-1.177-.477 1.64 1.64 0 0 0-1.177.477 1.59 1.59 0 0 0-.497 1.195zm4.184 1.912c0 .513.175.947.523 1.3a1.73 1.73 0 0 0 1.282.532c.505 0 .941-.177 1.307-.531a1.74 1.74 0 0 0 .55-1.301 1.74 1.74 0 0 0-.55-1.301 1.816 1.816 0 0 0-1.307-.531 1.73 1.73 0 0 0-1.282.53 1.783 1.783 0 0 0-.523 1.302zm2.981 3.61c0 .549.192 1.018.576 1.407.383.39.845.584 1.386.584.54 0 1.002-.194 1.386-.584.383-.389.575-.867.575-1.433 0-.531-.192-.991-.575-1.38a1.875 1.875 0 0 0-1.386-.585c-.54 0-1.003.195-1.386.584-.384.39-.576.859-.576 1.407zm1.203 4.646c0 .602.2 1.115.602 1.54.4.425.898.637 1.49.637a2.05 2.05 0 0 0 1.517-.637c.418-.425.628-.938.628-1.54 0-.601-.21-1.115-.628-1.54a2.05 2.05 0 0 0-1.517-.637c-.592 0-1.09.213-1.49.637a2.162 2.162 0 0 0-.602 1.54z" fill="#0081E4" fill-rule="evenodd"/></svg>