<svg width="17" height="17" xmlns="http://www.w3.org/2000/svg"><path d="M12.396 10.36l-.177.31L17 15.494 15.495 17l-4.781-4.826-.31.222c-1.18.738-2.406 1.107-3.675 1.107-1.86 0-3.446-.664-4.759-1.993C.657 10.182 0 8.59 0 6.73c0-1.86.657-3.447 1.97-4.76C3.283.657 4.87 0 6.73 0c1.859 0 3.445.657 4.758 1.97 1.314 1.313 1.97 2.9 1.97 4.76a6.674 6.674 0 0 1-1.062 3.63zm-1.904-7.394C9.46 1.933 8.205 1.416 6.73 1.416S4 1.934 2.966 2.967s-1.55 2.287-1.55 3.763.517 2.73 1.55 3.763 2.287 1.55 3.763 1.55 2.73-.517 3.763-1.55c1.063-1.062 1.594-2.317 1.594-3.763 0-1.446-.531-2.7-1.594-3.763z" fill="#0081E4" fill-rule="evenodd"/></svg>