<svg width="18" height="18" xmlns="http://www.w3.org/2000/svg"><path d="M9 0C6.515 0 4.393.879 2.636 2.636.879 4.393 0 6.515 0 9s.879 4.607 2.636 6.364C4.393 17.121 6.515 18 9 18s4.607-.879 6.364-2.636C17.121 13.607 18 11.485 18 9s-.879-4.607-2.636-6.364C13.607.879 11.485 0 9 0zm5.517 14.517c-1.52 1.519-3.358 2.278-5.517 2.278-2.159 0-3.998-.76-5.517-2.278C1.964 12.997 1.205 11.159 1.205 9c0-2.159.76-3.998 2.278-5.517C5.003 1.964 6.841 1.205 9 1.205c2.159 0 3.998.76 5.517 2.278 1.519 1.52 2.278 3.358 2.278 5.517 0 2.159-.76 3.998-2.278 5.517zm-1.94-6.157H9.565V4.142a.586.586 0 0 0-.17-.433.586.586 0 0 0-.433-.17.586.586 0 0 0-.433.17.586.586 0 0 0-.17.433v4.82c0 .176.057.32.17.433.113.113.258.17.433.17h3.615c.176 0 .32-.057.433-.17a.586.586 0 0 0 .17-.433.586.586 0 0 0-.17-.433.586.586 0 0 0-.433-.17z" fill="#0081E4" fill-rule="evenodd"/></svg>