<svg width="24" height="18" xmlns="http://www.w3.org/2000/svg"><path d="M12.586 4.71a.645.645 0 0 0-.27-.163.995.995 0 0 0-.61 0 .645.645 0 0 0-.268.164L6.984 9.14a.782.782 0 0 0-.21.539c0 .203.07.382.21.539a.72.72 0 0 0 .528.21c.21 0 .394-.07.55-.21L11.25 7.03v7.219a.72.72 0 0 0 .223.527A.72.72 0 0 0 12 15a.72.72 0 0 0 .527-.223.72.72 0 0 0 .223-.527V7.008l3.21 3.21c.157.141.34.212.552.212.21 0 .386-.07.527-.211a.782.782 0 0 0 .211-.54.782.782 0 0 0-.21-.538l-4.454-4.43zm4.71-.937a6.153 6.153 0 0 0-1.03-1.535 6.982 6.982 0 0 0-1.407-1.183A6.913 6.913 0 0 0 13.172.28 6.499 6.499 0 0 0 11.25 0a6.648 6.648 0 0 0-4.605 1.816A6.997 6.997 0 0 0 5.18 3.81a6.513 6.513 0 0 0-.657 2.449 6.508 6.508 0 0 0-1.816.832 6.16 6.16 0 0 0-1.43 1.3 5.97 5.97 0 0 0-.937 1.676A5.567 5.567 0 0 0 0 12c0 .797.156 1.547.469 2.25a6.136 6.136 0 0 0 1.277 1.863c.54.54 1.172.973 1.899 1.301A6.554 6.554 0 0 0 6 17.977L18.75 18a8.582 8.582 0 0 0 1.91-1.184 10.06 10.06 0 0 0 1.688-1.722c.492-.64.89-1.324 1.195-2.051A5.57 5.57 0 0 0 24 10.875a6.987 6.987 0 0 0-1.945-4.887 7.546 7.546 0 0 0-2.133-1.547 6.652 6.652 0 0 0-2.625-.668zM18.75 16.5H6l-.703-.14c-.469-.094-.988-.294-1.559-.598-.57-.305-1.086-.754-1.547-1.348C1.731 13.82 1.5 13.016 1.5 12c0-.563.121-1.11.363-1.64a4.927 4.927 0 0 1 2.39-2.426A4.529 4.529 0 0 1 6 7.5c0-.781.121-1.531.363-2.25a6.034 6.034 0 0 1 1.043-1.91c.453-.555 1.004-1 1.653-1.336.648-.336 1.378-.504 2.191-.504 1.281 0 2.344.352 3.188 1.055.843.703 1.414 1.601 1.71 2.695.938-.031 1.79.11 2.555.422a6.585 6.585 0 0 1 1.98 1.23 5.733 5.733 0 0 1 1.301 1.723c.313.64.485 1.266.516 1.875.031.531-.055 1.09-.258 1.676a7.956 7.956 0 0 1-.832 1.699 9.063 9.063 0 0 1-1.219 1.512c-.46.46-.941.832-1.441 1.113z" fill="#F5A623" fill-rule="evenodd"/></svg>