<svg width="24" height="21" xmlns="http://www.w3.org/2000/svg"><path d="M1.341 20.531a.712.712 0 0 0 .683.422c2.07 0 4.094-.578 6.07-1.734 1.506.25 2.792.375 3.859.375 3.294 0 6.11-.961 8.447-2.883 2.337-1.922 3.506-4.227 3.506-6.914 0-2.688-1.169-4.984-3.506-6.89C18.063 1 15.247.046 11.953.046c-3.294 0-6.11.953-8.447 2.86C1.169 4.812 0 7.108 0 9.796c0 2.656 1.13 4.937 3.388 6.844a14.55 14.55 0 0 1-1.93 3.093c-.219.25-.258.516-.117.797zm.165-10.734c0-2.281 1.02-4.227 3.059-5.836 2.039-1.61 4.502-2.414 7.388-2.414s5.349.805 7.388 2.414c2.04 1.61 3.059 3.555 3.059 5.836s-1.02 4.234-3.059 5.86c-2.04 1.624-4.502 2.437-7.388 2.437-1.286 0-2.573-.125-3.859-.375a.908.908 0 0 0-.565.093c-1.349.813-2.65 1.329-3.905 1.547a13.792 13.792 0 0 0 1.364-2.718c.157-.344.079-.625-.235-.844-2.165-1.656-3.247-3.656-3.247-6z" fill="#0081E4" fill-rule="evenodd"/></svg>