<svg width="70" height="42" xmlns="http://www.w3.org/2000/svg"><g fill="#0293DE"><path d="M69.771 20.252C62.486 7.84 49.257.058 35 .058 20.743.058 7.5 7.839.229 20.252c-.3.446-.3 1.05 0 1.496C7.514 34.16 20.743 41.942 35 41.942c14.257 0 27.5-7.781 34.771-20.194.3-.446.3-1.05 0-1.496zM35 38.951C22.071 38.95 10.029 32.075 3.343 21 10.029 9.925 22.07 3.05 35 3.05c12.929 0 24.971 6.875 31.657 17.95C59.971 32.075 47.93 38.95 35 38.95z"/><path d="M35 7.537c-7.429 0-13.371 5.984-13.371 13.463 0 7.48 5.942 13.463 13.371 13.463S48.371 28.479 48.371 21c0-7.48-5.942-13.463-13.371-13.463zm0 23.934c-5.8 0-10.4-4.646-10.4-10.471S29.214 10.529 35 10.529c5.786 0 10.4 4.646 10.4 10.471S40.8 31.471 35 31.471z"/><path d="M35 15.016v2.992c1.629 0 2.971 1.352 2.971 2.992S36.63 23.992 35 23.992 32.029 22.64 32.029 21h-2.972c0 3.294 2.672 5.984 5.943 5.984 3.271 0 5.943-2.69 5.943-5.984S38.27 15.016 35 15.016z"/></g></svg>