<svg width="66" height="65" xmlns="http://www.w3.org/2000/svg"><g fill="#0293DE"><path d="M65.765 15.444a1.286 1.286 0 0 0-1.054-.553H43.399c-.515 0-.981.31-1.185.787l-4.547 10.668h-9.334l-4.548-10.668a1.289 1.289 0 0 0-1.184-.787H1.289c-.42 0-.813.206-1.054.553a1.31 1.31 0 0 0-.16 1.187l3.96 11.12v35.891c0 .718.578 1.3 1.29 1.3h55.307c.712 0 1.29-.582 1.29-1.3v-35.77l4.002-11.241a1.309 1.309 0 0 0-.159-1.187zM3.122 17.49h18.63l3.775 8.855H6.275L3.122 17.49zm56.221 44.851H39.805V40.045c0-.718-.577-1.3-1.29-1.3-.711 0-1.288.582-1.288 1.3v22.297H6.614V28.946h52.73v33.396zm.382-35.996H40.473l3.775-8.854h18.63l-3.153 8.854zM33.122.058c-.712 0-1.29.582-1.29 1.3V7.87c0 .718.578 1.3 1.29 1.3.712 0 1.289-.582 1.289-1.3V1.358c0-.718-.577-1.3-1.29-1.3zm11.442 5.007a1.282 1.282 0 0 0-1.824 0l-4.566 4.606a1.308 1.308 0 0 0 0 1.838 1.28 1.28 0 0 0 1.823 0l4.567-4.605a1.308 1.308 0 0 0 0-1.839zM27.826 9.67L23.26 5.066a1.282 1.282 0 0 0-1.823 0 1.308 1.308 0 0 0 0 1.839l4.567 4.605a1.28 1.28 0 0 0 1.823 0 1.308 1.308 0 0 0 0-1.838z"/><ellipse cx="38.516" cy="33.883" rx="1.289" ry="1.3"/></g></svg>