<svg width="70" height="70" xmlns="http://www.w3.org/2000/svg"><path d="M61.468 16.65a1.313 1.313 0 0 0 1.073-.376l7.075-7.076a1.312 1.312 0 0 0-.81-2.234l-5.29-.48-.48-5.29A1.312 1.312 0 0 0 60.8.383L53.727 7.46c-.282.282-.42.677-.377 1.073l.626 5.636-1.324 1.325c-4.893-4.476-11.31-7.31-18.373-7.624V5.378a1.312 1.312 0 0 0-2.624 0v2.49c-15.056.67-27.182 12.796-27.852 27.853h-2.49a1.312 1.312 0 0 0 0 2.624h2.49C4.473 53.4 16.6 65.527 31.655 66.197v2.49a1.312 1.312 0 0 0 2.624 0v-2.49c15.056-.67 27.182-12.796 27.852-27.852h2.49a1.312 1.312 0 0 0 0-2.624h-2.49c-.314-7.062-3.148-13.48-7.623-18.373l1.324-1.325 5.636.626zm-.792-12.43l.326 3.59c.058.63.557 1.13 1.188 1.188l3.59.326-4.649 4.648-4.592-.51-.51-4.593 4.647-4.648zm-1.171 31.5h-1.849a1.312 1.312 0 0 0 0 2.625h1.849c-.665 13.61-11.617 24.56-25.226 25.226v-1.849a1.312 1.312 0 0 0-2.624 0v1.849c-13.61-.665-24.56-11.617-25.226-25.226h1.849a1.312 1.312 0 0 0 0-2.624H6.429c.665-13.61 11.617-24.561 25.226-25.226v1.848a1.312 1.312 0 0 0 2.624 0v-1.848a26.467 26.467 0 0 1 16.516 6.854l-3.948 3.948a20.906 20.906 0 0 0-13.88-5.258c-11.576 0-20.994 9.418-20.994 20.994s9.418 20.994 20.994 20.994S53.96 48.61 53.96 37.033a20.908 20.908 0 0 0-5.258-13.88l3.948-3.949a26.468 26.468 0 0 1 6.854 16.517zm-27.466 2.24a1.308 1.308 0 0 0 1.856 0l7.126-7.125a10.116 10.116 0 0 1 2.115 6.198c0 5.607-4.562 10.169-10.17 10.169-5.606 0-10.168-4.562-10.168-10.17 0-5.606 4.562-10.168 10.169-10.168 2.331 0 4.48.79 6.198 2.115l-7.126 7.126a1.313 1.313 0 0 0 0 1.856zm.928-13.72c-7.054 0-12.793 5.739-12.793 12.793 0 7.054 5.739 12.793 12.793 12.793 7.054 0 12.793-5.739 12.793-12.793 0-3.055-1.078-5.863-2.872-8.066l3.957-3.957a18.292 18.292 0 0 1 4.492 12.023c0 10.13-8.24 18.37-18.37 18.37-10.129 0-18.37-8.24-18.37-18.37s8.241-18.37 18.37-18.37c4.594 0 8.799 1.695 12.023 4.492l-3.957 3.957a12.732 12.732 0 0 0-8.066-2.872z" fill="#0293DE"/></svg>