<svg width="70" height="59" xmlns="http://www.w3.org/2000/svg"><path d="M43.993 1.754A1.74 1.74 0 0 0 42.255.012H23.838c-.96 0-1.738.78-1.738 1.742v11.077a1.74 1.74 0 0 0 1.738 1.742h16.678v4.921L23.838 36.213l-4.295-4.307a1.738 1.738 0 0 0-2.657.237L.31 56.033a1.745 1.745 0 0 0 1.428 2.736h66.304c.96 0 1.738-.78 1.738-1.742 0-.414-.144-.795-.385-1.094L43.993 19.665V1.754zm-18.416 9.335V3.496h14.94v7.593h-14.94zM5.065 55.284l13.488-19.44 4.056 4.065a1.738 1.738 0 0 0 2.459 0L42.02 22.914l22.673 32.37H5.064z" fill="#0293DE"/></svg>