<svg width="26" height="29" xmlns="http://www.w3.org/2000/svg"><g fill="none"><path d="M1.886 0h15.756l8.352 8.112v19.011c0 1-.83 1.808-1.854 1.808H1.886c-1.024 0-1.854-.809-1.854-1.808V1.808C.032.81.862 0 1.886 0z" fill="#E2574C"/><path d="M25.967 8.137h-6.464c-1.023 0-1.854-.81-1.854-1.808V.019l8.318 8.118z" fill="#B53629"/><path d="M19.038 13.709c.31 0 .463-.264.463-.52 0-.265-.159-.52-.463-.52h-1.77c-.345 0-.538.279-.538.587v4.24c0 .377.22.587.52.587.296 0 .518-.21.518-.588v-1.163h1.07c.332 0 .498-.265.498-.528 0-.258-.166-.514-.498-.514h-1.07v-1.58h1.27zm-5.98-1.04h-1.294c-.352 0-.601.234-.601.583V17.5c0 .433.359.569.616.569h1.358c1.608 0 2.67-1.032 2.67-2.624-.001-1.684-1-2.776-2.749-2.776zm.062 4.352h-.789v-3.306h.712c1.076 0 1.544.705 1.544 1.677 0 .91-.46 1.629-1.467 1.629zm-4.74-4.353H7.096c-.362 0-.565.234-.565.588v4.24c0 .377.232.587.544.587.311 0 .543-.21.543-.588v-1.237h.804c.992 0 1.81-.686 1.81-1.788.001-1.078-.789-1.802-1.853-1.802zm-.022 2.595h-.739v-1.6h.74c.455 0 .746.348.746.8-.001.453-.29.8-.747.8z" fill="#FFF"/></g></svg>